<svg width="144" height="32" viewBox="0 0 144 32" fill="none" xmlns="http://www.w3.org/2000/svg">
<path d="M6.72173 0.939367L4.87948 8.99817L11.8004 4.40021L13.1447 5.29013L7.76733 13.0523L6.72173 12.3601L8.81294 9.34426L11.1531 6.13062L4.2322 10.6297L3.48534 10.1353L5.2778 2.12594L3.13681 5.43846L1.0456 8.45434L0 7.76216L5.37739 0L6.72173 0.939367Z" fill="white"/>
<path d="M14.0409 16.4637C14.0409 16.3154 14.0907 16.0682 14.2401 15.7221C13.4932 15.9693 12.7464 15.9199 12.0493 15.5738C11.4518 15.2277 11.0037 14.8322 10.8045 14.2389C10.6054 13.695 10.6552 13.1512 10.9041 12.6073C11.2526 11.9646 11.7506 11.6185 12.4476 11.5196C13.1447 11.4208 13.9413 11.6185 14.7878 12.0635L15.8334 12.6073L16.0823 12.1129C16.2815 11.7669 16.3313 11.3713 16.2317 11.0747C16.1321 10.7286 15.8334 10.432 15.4351 10.2342C15.0367 10.0364 14.6882 9.93755 14.3397 10.0364C13.9911 10.0859 13.7422 10.2342 13.5928 10.5308L12.5472 9.98699C12.6966 9.69034 12.9953 9.44314 13.3439 9.24538C13.6924 9.04761 14.1405 8.99818 14.5886 9.04762C15.0367 9.09706 15.5346 9.19595 15.9828 9.44315C16.6798 9.83868 17.1777 10.2836 17.3769 10.8769C17.5761 11.4702 17.5263 12.0635 17.2275 12.6568L15.684 15.4749C15.3853 16.0187 15.2359 16.5131 15.1861 16.9581L15.1363 17.057L14.0409 16.4637ZM12.7464 14.6838C13.0949 14.8816 13.4434 14.931 13.8418 14.931C14.2401 14.931 14.5886 14.8322 14.8376 14.585L15.5346 13.2995L14.6882 12.8545C13.3936 12.1624 12.5472 12.2118 12.1489 12.9534C11.9497 13.2995 11.9497 13.5962 12.0493 13.8928C12.1489 14.2883 12.3978 14.5355 12.7464 14.6838Z" fill="white"/>
<path d="M22.6547 13.8928C22.5053 13.7939 22.3061 13.695 22.1568 13.5962C21.4597 13.2501 20.8124 13.349 20.2647 13.8434L18.1735 18.3425L17.0781 17.8481L19.966 11.4702L21.0116 11.9646L20.7128 12.7062C21.3103 12.3107 21.9576 12.2613 22.6547 12.5579C22.8538 12.6568 23.0032 12.7557 23.1028 12.8546L22.6547 13.8928Z" fill="white"/>
<path d="M24.3975 20.0729C24.7958 20.2212 25.1941 20.2212 25.5925 20.1223C25.9908 19.974 26.2895 19.7763 26.4389 19.4302L27.4845 19.8257C27.3351 20.1718 27.0364 20.5179 26.6879 20.7651C26.3393 21.0123 25.8912 21.1606 25.3933 21.21C24.8954 21.2595 24.4473 21.21 23.9992 21.0123C23.1029 20.6662 22.5054 20.0729 22.2067 19.2819C21.908 18.4908 21.9577 17.5514 22.3561 16.5626L22.4059 16.3649C22.6548 15.7221 23.0033 15.2277 23.4017 14.8322C23.8498 14.4367 24.2979 14.1895 24.8456 14.0906C25.3933 13.9917 25.941 14.0412 26.5385 14.2884C27.2853 14.585 27.7832 15.03 28.1318 15.6727C28.4305 16.3154 28.4803 16.9581 28.2314 17.6997L27.1858 17.3042C27.3351 16.8593 27.2853 16.4637 27.136 16.0682C26.9368 15.6727 26.6381 15.4255 26.2397 15.2277C25.692 15.03 25.1443 15.03 24.6962 15.3266C24.1983 15.6233 23.8498 16.1176 23.551 16.9087L23.4515 17.1065C23.1527 17.8481 23.1029 18.4908 23.2523 19.0346C23.4515 19.4796 23.8 19.8751 24.3975 20.0729Z" fill="white"/>
<path d="M32.5629 23.7809C32.5629 23.6326 32.5629 23.3854 32.6127 23.0393C31.9156 23.4349 31.1688 23.4843 30.4219 23.2371C29.7746 23.0393 29.2767 22.6932 28.978 22.1494C28.6792 21.655 28.6295 21.1112 28.7788 20.5179C28.978 19.8257 29.4261 19.3807 30.0734 19.1335C30.7207 18.9358 31.5173 18.9852 32.5131 19.2819L33.6085 19.6279L33.7579 19.0841C33.9073 18.6886 33.8575 18.3425 33.7081 17.9964C33.5587 17.6998 33.2102 17.4526 32.7621 17.3042C32.3638 17.1559 31.9654 17.1559 31.6169 17.3042C31.2684 17.4031 31.0692 17.6503 30.9696 17.8975L29.8244 17.5514C29.924 17.2054 30.173 16.9581 30.4717 16.7109C30.8202 16.4637 31.2186 16.3154 31.6667 16.266C32.1148 16.2165 32.6127 16.266 33.1106 16.4143C33.9073 16.6615 34.4052 17.057 34.7537 17.5514C35.0524 18.0953 35.1022 18.6886 34.9031 19.3313L33.9073 22.3966C33.7081 22.9899 33.6085 23.5337 33.6583 23.9293L33.6085 24.0281L32.5629 23.7809ZM30.9198 22.2977C31.2684 22.3966 31.6667 22.446 32.0152 22.3472C32.4135 22.2483 32.7123 22.1 32.9612 21.8528L33.4094 20.4684L32.5131 20.1718C31.119 19.7268 30.2725 19.9246 30.0236 20.7156C29.924 21.0617 29.924 21.4078 30.1232 21.655C30.2725 22.0011 30.5713 22.1988 30.9198 22.2977Z" fill="white"/>
<path d="M40.1815 23.9292C40.2811 23.6326 40.2313 23.3359 40.0321 23.0887C39.833 22.8415 39.4844 22.5943 38.8869 22.2977C38.2895 22.001 37.8911 21.7538 37.5924 21.5066C37.2936 21.2594 37.0945 20.9628 36.9949 20.6661C36.8953 20.3695 36.8953 20.0728 36.9949 19.7268C37.1443 19.1829 37.4928 18.7874 38.0903 18.4907C38.6878 18.2435 39.3351 18.1941 40.0321 18.3919C40.8288 18.5896 41.3765 18.9357 41.7748 19.4796C42.1731 20.0234 42.2727 20.5673 42.1233 21.21L40.9284 20.9133C41.0279 20.6167 40.9284 20.2706 40.7292 19.974C40.53 19.6773 40.2313 19.4796 39.7832 19.3807C39.3351 19.2818 38.9865 19.2818 38.7376 19.3807C38.4388 19.4796 38.2895 19.7268 38.1899 20.0234C38.1401 20.3201 38.1899 20.5178 38.3392 20.765C38.5384 20.9628 38.8869 21.21 39.4346 21.5066C39.9823 21.8033 40.4305 22.0505 40.7292 22.3471C41.0279 22.6437 41.2769 22.891 41.3765 23.1876C41.4761 23.4842 41.4761 23.8303 41.3765 24.1764C41.2271 24.7697 40.8288 25.2147 40.2811 25.4619C39.7334 25.7091 39.0363 25.7091 38.2397 25.5113C37.692 25.363 37.2439 25.1652 36.8455 24.8686C36.497 24.5719 36.1983 24.2258 36.0489 23.8303C35.8995 23.4348 35.8995 23.0393 35.9991 22.6438L37.1443 22.9404C37.0447 23.3359 37.1443 23.682 37.3932 23.9787C37.6422 24.2753 37.9907 24.4731 38.4388 24.6214C38.8869 24.7203 39.2355 24.7203 39.584 24.6214C39.9325 24.5225 40.0819 24.2259 40.1815 23.9292Z" fill="white"/>
<path d="M42.2723 28.28L41.7246 27.6867C42.2225 27.2417 42.571 26.6979 42.7204 26.1046L42.9694 25.0663L44.1146 25.3135L43.9154 26.2529C43.8158 26.6979 43.6167 27.0934 43.3179 27.4395C42.9694 27.7856 42.6208 28.0822 42.2723 28.28Z" fill="white"/>
<path d="M53.2759 28.4283C53.2262 28.28 53.2262 28.0328 53.2262 27.6867C52.5789 28.1811 51.8818 28.3295 51.0852 28.2306C50.3881 28.1317 49.8902 27.8351 49.4919 27.3901C49.0935 26.9451 48.994 26.4013 49.0935 25.808C49.1931 25.0664 49.5914 24.572 50.1889 24.2753C50.7864 23.9787 51.6329 23.8798 52.6287 24.0776L53.7739 24.2753L53.8734 23.7315C53.9232 23.336 53.8734 22.9899 53.6743 22.6932C53.4751 22.3966 53.1266 22.2483 52.6287 22.1494C52.1806 22.1 51.832 22.1494 51.5333 22.2977C51.2345 22.446 51.0354 22.6932 50.9856 22.9899L49.7906 22.7921C49.8404 22.446 50.0396 22.1494 50.3383 21.8527C50.637 21.5561 51.0354 21.3584 51.4835 21.2595C51.9316 21.1606 52.4295 21.1111 52.9274 21.21C53.7241 21.3583 54.3215 21.655 54.7199 22.0999C55.1182 22.5944 55.2676 23.1382 55.168 23.8798L54.6701 27.044C54.5705 27.6867 54.5705 28.1811 54.6701 28.5767V28.6756L53.2759 28.4283ZM51.4835 27.1923C51.832 27.2418 52.2303 27.1923 52.5789 27.0934C52.9274 26.9451 53.2262 26.7474 53.4253 26.4507L53.6743 25.017L52.7282 24.8686C51.2843 24.6214 50.4877 24.9181 50.3383 25.808C50.2885 26.1541 50.3383 26.5002 50.5873 26.7474C50.7864 26.9946 51.0852 27.1429 51.4835 27.1923Z" fill="white"/>
<path d="M60.5955 23.3854C60.3963 23.3359 60.247 23.2865 59.998 23.2865C59.2014 23.1876 58.6537 23.4348 58.2554 24.0775L57.6579 29.0216L56.4629 28.8733L57.3093 21.9516L58.4545 22.0999L58.3549 22.891C58.803 22.2977 59.4005 22.0999 60.1474 22.1494C60.3963 22.1988 60.5457 22.2482 60.6453 22.2977L60.5955 23.3854Z" fill="white"/>
<path d="M63.9807 20.9628L63.8313 22.6437L65.1259 22.7426L65.0263 23.682L63.7317 23.5831L63.3334 27.8844C63.2836 28.1811 63.3334 28.3788 63.433 28.5272C63.5326 28.6755 63.7317 28.7744 64.0305 28.7744C64.1798 28.7744 64.379 28.7744 64.6279 28.7249L64.5284 29.6643C64.2296 29.7137 63.8811 29.7138 63.5823 29.7138C63.0346 29.6643 62.6363 29.4665 62.4372 29.1205C62.1882 28.7744 62.0886 28.28 62.1384 27.7361L62.5367 23.4348L61.2422 23.3359L61.3418 22.3965L62.6363 22.4954L62.7857 20.8145L63.9807 20.9628Z" fill="white"/>
<path d="M67.4167 29.9115L66.2217 29.8126L66.7196 22.8415L67.9146 22.9404L67.4167 29.9115ZM66.7196 21.0122C66.7196 20.8145 66.8192 20.6661 66.9187 20.5178C67.0681 20.3695 67.2175 20.3201 67.4664 20.3695C67.7154 20.4189 67.8648 20.4684 67.9644 20.6167C68.0639 20.765 68.1137 20.9133 68.1137 21.1111C68.1137 21.3089 68.0141 21.4572 67.9146 21.6055C67.7652 21.7044 67.6158 21.8033 67.3669 21.7538C67.1179 21.7044 66.9685 21.655 66.869 21.5066C66.7694 21.3583 66.7196 21.21 66.7196 21.0122Z" fill="white"/>
<path d="M73.7898 28.3789C73.7898 28.0328 73.6902 27.7856 73.4413 27.6373C73.1923 27.4395 72.794 27.2912 72.1965 27.1429C71.599 26.9946 71.1011 26.7968 70.7526 26.6485C70.404 26.4507 70.1551 26.2529 70.0057 25.9563C69.8563 25.7091 69.7567 25.4125 69.8065 25.0664C69.8065 24.4731 70.1053 24.0281 70.6032 23.6326C71.1011 23.2371 71.7484 23.0887 72.4952 23.0887C73.2919 23.1382 73.9392 23.336 74.4371 23.7809C74.935 24.2259 75.1341 24.7203 75.1341 25.363L73.9392 25.3136C73.9392 24.9675 73.8396 24.7203 73.5408 24.4731C73.2421 24.2259 72.9434 24.0776 72.4952 24.0776C72.0471 24.0776 71.6986 24.127 71.4496 24.3248C71.2007 24.5225 71.0513 24.7697 71.0513 25.0664C71.0513 25.363 71.1509 25.5608 71.3501 25.7091C71.599 25.8574 71.9973 26.0057 72.5948 26.1541C73.1923 26.3024 73.6902 26.5002 74.0387 26.6979C74.3873 26.8957 74.686 27.1429 74.8354 27.3901C74.9848 27.6373 75.0843 27.9834 75.0843 28.3294C75.0843 28.9722 74.7856 29.4666 74.2877 29.8127C73.7898 30.1587 73.0927 30.3565 72.2961 30.3071C71.7484 30.3071 71.2505 30.1588 70.8024 29.961C70.3542 29.7632 70.0555 29.4666 69.8065 29.0711C69.5576 28.725 69.458 28.3294 69.458 27.8845L70.653 27.9339C70.653 28.3295 70.8024 28.6755 71.1011 28.9227C71.3998 29.1699 71.7982 29.3183 72.2961 29.3183C72.7442 29.3183 73.1425 29.2688 73.3915 29.0711C73.6404 28.8733 73.7898 28.6755 73.7898 28.3789Z" fill="white"/>
<path d="M78.4202 21.6055V23.2865H79.7148V24.2259H78.4202V28.5766C78.4202 28.8733 78.47 29.0711 78.5696 29.2194C78.6691 29.3677 78.8683 29.4171 79.1671 29.4171C79.3164 29.4171 79.5156 29.4171 79.7645 29.3183V30.3071C79.4658 30.4059 79.1173 30.4554 78.8185 30.4554C78.2708 30.4554 77.8725 30.3071 77.6235 29.961C77.3746 29.6149 77.2252 29.1699 77.2252 28.5766V24.2259H75.9307V23.2865H77.2252V21.6055H78.4202Z" fill="white"/>
<path d="M85.9878 30.0104C85.8882 29.8621 85.8384 29.6149 85.7886 29.2688C85.2907 29.8621 84.6434 30.2082 83.8468 30.2576C83.1497 30.3071 82.5522 30.1587 82.1041 29.8127C81.656 29.4666 81.3573 28.9722 81.3075 28.3789C81.2577 27.6373 81.5066 27.044 82.0045 26.6485C82.5522 26.2035 83.2991 25.9563 84.2949 25.8574L85.4401 25.7585L85.3903 25.2147C85.3405 24.8192 85.1911 24.4731 84.9422 24.2259C84.6932 23.9787 84.2949 23.8798 83.797 23.9292C83.3489 23.9787 83.0003 24.0775 82.7514 24.3248C82.4526 24.572 82.3531 24.8192 82.3531 25.1158L81.1581 25.2147C81.1083 24.8686 81.2577 24.5225 81.4568 24.1764C81.7058 23.8304 82.0045 23.5337 82.4029 23.3359C82.8012 23.1382 83.2991 22.9899 83.797 22.9404C84.5936 22.891 85.2409 23.0393 85.7388 23.3854C86.2367 23.7315 86.4857 24.2753 86.5853 25.0169L86.8342 28.2306C86.884 28.8733 86.9836 29.3677 87.1828 29.7632V29.8621L85.9878 30.0104ZM83.8966 29.2194C84.2949 29.1699 84.6434 29.071 84.9422 28.8733C85.2907 28.6755 85.4899 28.3789 85.6392 28.0822L85.5397 26.6485L84.5936 26.6979C83.0999 26.7968 82.4029 27.2912 82.5024 28.1317C82.5522 28.5272 82.6518 28.7744 82.9506 28.9722C83.1995 29.1699 83.4982 29.2688 83.8966 29.2194Z" fill="white"/>
<path d="M94.951 26.8462L95.4987 21.3583L96.7434 21.1111L95.5983 29.5654C95.3991 30.8014 94.8514 31.4936 93.9054 31.6914L93.6564 31.7408H93.2083L93.0092 30.8014L93.3577 30.752C93.756 30.6531 94.0548 30.5048 94.2539 30.307C94.4531 30.1093 94.5527 29.7632 94.6024 29.3182L94.702 28.5766L90.8184 22.2977L92.1129 22.0505L94.951 26.8462Z" fill="white"/>
<path d="M102.17 17.8975L102.668 19.529L103.913 19.1829L104.162 20.0729L102.917 20.4189L104.112 24.5719C104.212 24.8191 104.311 25.0169 104.461 25.1158C104.61 25.2147 104.809 25.2147 105.108 25.1652C105.257 25.1158 105.407 25.0663 105.656 24.918L105.905 25.8574C105.606 26.0057 105.357 26.154 105.058 26.2529C104.56 26.4012 104.112 26.3518 103.764 26.1046C103.415 25.8574 103.166 25.4619 102.967 24.918L101.772 20.765L100.527 21.1111L100.278 20.2212L101.523 19.8751L101.025 18.2436L102.17 17.8975Z" fill="white"/>
<path d="M105.955 22.0999C105.756 21.4572 105.656 20.8145 105.756 20.2212C105.855 19.6279 106.055 19.0841 106.403 18.6391C106.752 18.1941 107.25 17.8975 107.847 17.6997C108.743 17.4031 109.59 17.4525 110.386 17.8975C111.183 18.3425 111.731 19.0841 112.079 20.1223L112.129 20.2212C112.328 20.8639 112.428 21.5067 112.328 22.0999C112.229 22.6932 112.029 23.2371 111.681 23.6326C111.332 24.0776 110.835 24.3742 110.237 24.572C109.341 24.8686 108.494 24.8192 107.698 24.3742C106.901 23.9292 106.353 23.1876 106.005 22.1988L105.955 22.0999ZM107.15 21.8527C107.399 22.5943 107.747 23.1382 108.245 23.4348C108.743 23.7315 109.291 23.8304 109.839 23.6326C110.436 23.4348 110.785 23.0393 110.984 22.4955C111.183 21.9516 111.133 21.2595 110.835 20.419C110.586 19.6774 110.237 19.183 109.689 18.8369C109.191 18.4908 108.644 18.4413 108.096 18.6391C107.548 18.8369 107.15 19.183 106.951 19.7762C106.851 20.3695 106.901 21.0617 107.15 21.8527Z" fill="white"/>
<path d="M115.962 16.0682C115.763 16.1176 115.613 16.167 115.414 16.2165C114.667 16.5131 114.319 17.0075 114.269 17.6997L116.061 22.3471L114.916 22.7921L112.377 16.2659L113.472 15.8704L113.771 16.612C113.92 15.8704 114.319 15.376 115.016 15.1288C115.215 15.0299 115.414 15.0299 115.564 15.0299L115.962 16.0682Z" fill="white"/>
<path d="M117.705 14.1894L118.103 14.9805C118.352 14.14 118.85 13.5467 119.647 13.2501C121.041 12.6568 122.037 13.1512 122.684 14.6838L124.476 18.9357L123.381 19.3807L121.539 15.1288C121.339 14.6839 121.091 14.3872 120.792 14.2389C120.493 14.0906 120.095 14.14 119.647 14.3378C119.298 14.4861 118.999 14.7333 118.8 15.0299C118.601 15.3266 118.501 15.6727 118.501 16.0682L120.443 20.6662L119.348 21.1111L116.609 14.6838L117.705 14.1894Z" fill="white"/>
<path d="M129.157 16.9581C128.31 17.3536 127.464 17.4031 126.667 17.1065C125.871 16.8098 125.223 16.1671 124.775 15.2277L124.676 15.0299C124.377 14.3872 124.228 13.7939 124.228 13.2006C124.228 12.6074 124.377 12.0635 124.676 11.5691C124.974 11.0747 125.373 10.7286 125.871 10.4814C126.717 10.0859 127.464 10.0859 128.211 10.3825C128.958 10.6792 129.505 11.3714 130.003 12.4096L130.202 12.8546L125.871 14.8816C126.169 15.4749 126.617 15.9199 127.115 16.1176C127.663 16.3154 128.211 16.3154 128.709 16.0682C129.107 15.8704 129.406 15.6727 129.555 15.376C129.754 15.0794 129.904 14.7827 129.953 14.4367L130.85 14.6344C130.85 15.6727 130.202 16.4637 129.157 16.9581ZM126.319 11.3219C125.871 11.5197 125.572 11.8657 125.423 12.3107C125.273 12.7557 125.323 13.2995 125.522 13.8928L128.709 12.4096L128.659 12.3107C128.36 11.7669 128.012 11.4208 127.613 11.223C127.215 11.1241 126.767 11.1241 126.319 11.3219Z" fill="white"/>
<path d="M131.198 11.9152C130.899 11.3219 130.7 10.6792 130.7 10.0859C130.7 9.49262 130.8 8.94878 131.099 8.45437C131.397 7.95997 131.796 7.56443 132.343 7.31723C133.19 6.87227 134.036 6.82283 134.883 7.11947C135.729 7.41612 136.376 8.05884 136.874 9.04765L136.924 9.14654C137.223 9.73982 137.422 10.3331 137.422 10.9758C137.422 11.6186 137.322 12.113 137.024 12.6074C136.725 13.1018 136.327 13.4973 135.729 13.7939C134.883 14.2389 134.036 14.2883 133.19 13.9917C132.343 13.6951 131.696 13.0523 131.198 12.0635V11.9152ZM132.294 11.4702C132.642 12.1624 133.09 12.6074 133.638 12.8546C134.186 13.1018 134.733 13.1018 135.231 12.8051C135.779 12.5085 136.078 12.113 136.177 11.5197C136.277 10.9264 136.127 10.2342 135.729 9.49261C135.381 8.80044 134.932 8.35549 134.385 8.10828C133.837 7.86108 133.289 7.86108 132.742 8.15773C132.194 8.45437 131.895 8.8499 131.796 9.44318C131.746 9.98703 131.895 10.6792 132.294 11.4702Z" fill="white"/>
<path d="M142.75 7.56439C142.6 7.26774 142.351 7.11942 142.053 7.11942C141.754 7.06998 141.306 7.16886 140.708 7.36663C140.111 7.56439 139.613 7.66327 139.214 7.66327C138.816 7.66327 138.468 7.61382 138.219 7.51494C137.92 7.36662 137.721 7.16886 137.522 6.87222C137.223 6.37782 137.223 5.83398 137.422 5.24069C137.621 4.6474 138.069 4.15299 138.717 3.8069C139.414 3.41138 140.061 3.26306 140.708 3.36194C141.355 3.46082 141.804 3.8069 142.152 4.35075L141.107 4.94404C140.957 4.6474 140.658 4.49908 140.31 4.40019C139.961 4.35075 139.563 4.40019 139.214 4.59795C138.816 4.79572 138.567 5.09236 138.468 5.33956C138.368 5.6362 138.368 5.88341 138.517 6.18006C138.667 6.42726 138.866 6.57558 139.165 6.57558C139.463 6.57558 139.862 6.52613 140.459 6.32837C141.057 6.13061 141.555 6.03173 141.953 6.03173C142.351 5.98229 142.7 6.08118 142.999 6.18006C143.297 6.32838 143.546 6.52614 143.696 6.87222C143.994 7.41607 144.044 7.95991 143.795 8.5532C143.546 9.14648 143.098 9.64089 142.401 10.0364C141.903 10.3331 141.455 10.4814 140.957 10.5308C140.459 10.5803 140.061 10.4814 139.663 10.3331C139.264 10.1847 138.966 9.88809 138.766 9.54201L139.812 8.94873C140.011 9.29481 140.31 9.49257 140.708 9.54201C141.107 9.59145 141.505 9.49256 141.903 9.24536C142.301 8.99816 142.55 8.75097 142.7 8.45432C142.899 8.10824 142.899 7.81159 142.75 7.56439Z" fill="white"/>
</svg>
